# xmcd CD database file
#
# Track frame offsets:
#	182
#	28510
#	58002
#	79612
#	113367
#	144997
#	171377
#	194072
#	205930
#	233742
#	249042
#	268340
#	294897
#	313632
#
# Disc length: 4570 seconds
#
# Revision: 0
# Processed by: cddbd v1.5.2PL0 Copyright (c) Steve Scherf et al.
# Submitted via: CDex 1.70beta2
#
DISCID=be11d80e
DTITLE=Various Artist - Relaxing Jazz
DYEAR=1995
DGENRE=Jazz
TTITLE0=Wave - Paul Desmond
TTITLE1=Softly as in a morning sunrise - The Sonny Clark Trio
TTITLE2=Lil' Darlin' - Count Basie and his Orchestra
TTITLE3=Truckin' - Bob Brookmeyer Quintet
TTITLE4=All of You - Miles Davis Quintet
TTITLE5=Satin Doll - The Three Sounds
TTITLE6=Easy Living - Ike Quebec
TTITLE7=But Beautiful - Joe Pass
TTITLE8=Violets for your furs - Jutta Hipp
TTITLE9=A hundred dreams from now - Ray Bryant
TTITLE10=You go to my head - Art Pepper
TTITLE11=Easy Street - Thelonius Monk
TTITLE12=Get out of town - Gerry Mulligan
TTITLE13=If I should lose you - Jimmy Smith
EXTD=YEAR: 1995
EXTT0=
EXTT1=
EXTT2=
EXTT3=
EXTT4=
EXTT5=
EXTT6=
EXTT7=
EXTT8=
EXTT9=
EXTT10=
EXTT11=
EXTT12=
EXTT13=
PLAYORDER=
